<?xml version="1.0" encoding="UTF-8" standalone="no"?>
<!-- Generator: Adobe Illustrator 16.0.0, SVG Export Plug-In . SVG Version: 6.00 Build 0)  -->

<svg
   xmlns:dc="http://purl.org/dc/elements/1.1/"
   xmlns:cc="http://creativecommons.org/ns#"
   xmlns:rdf="http://www.w3.org/1999/02/22-rdf-syntax-ns#"
   xmlns:svg="http://www.w3.org/2000/svg"
   xmlns="http://www.w3.org/2000/svg"
   xmlns:sodipodi="http://sodipodi.sourceforge.net/DTD/sodipodi-0.dtd"
   xmlns:inkscape="http://www.inkscape.org/namespaces/inkscape"
   version="1.1"
   id="Layer_1"
   x="0px"
   y="0px"
   width="100"
   height="100"
   viewBox="0 0 100 100"
   enable-background="new 0 0 512 512"
   xml:space="preserve"
   sodipodi:docname="passwordicon.svg"
   inkscape:version="0.92.4 (5da689c313, 2019-01-14)"><metadata
   id="metadata9"><rdf:RDF><cc:Work
       rdf:about=""><dc:format>image/svg+xml</dc:format><dc:type
         rdf:resource="http://purl.org/dc/dcmitype/StillImage" /><dc:title></dc:title></cc:Work></rdf:RDF></metadata><defs
   id="defs7" /><sodipodi:namedview
   pagecolor="#ffffff"
   bordercolor="#666666"
   borderopacity="1"
   objecttolerance="10"
   gridtolerance="10"
   guidetolerance="10"
   inkscape:pageopacity="0"
   inkscape:pageshadow="2"
   inkscape:window-width="1920"
   inkscape:window-height="1027"
   id="namedview5"
   showgrid="false"
   inkscape:zoom="7.375"
   inkscape:cx="54.897003"
   inkscape:cy="55.70587"
   inkscape:window-x="-8"
   inkscape:window-y="-8"
   inkscape:window-maximized="1"
   inkscape:current-layer="Layer_1" />
<path
   d="m 65.693802,59.562096 -5e-6,-8.148628 -28.045191,-0.0018 C 35.300038,59.252633 28.119496,64.992554 19.513216,65 9.0161292,64.992374 0.4998809,56.476317 0.5,45.986785 c 8.3e-6,-10.504542 8.5162483,-19.02078 19.020773,-19.020772 8.598842,-8e-6 15.783104,5.751318 18.126033,13.582784 l 55.218216,0.0056 c 2.988209,-0.0018 5.434273,2.444255 5.43234,5.432348 0,2.986408 -2.446054,5.432464 -5.432349,5.432345 v 8.148638 c 0,1.500642 -1.215524,2.716167 -2.716168,2.716167 h -5.432343 c -1.502577,0.0017 -2.718103,-1.213591 -2.716172,-2.716175 l -1.24e-4,-8.148511 -5.439906,-0.0075 0.0056,8.157897 c 3e-6,1.500644 -1.215524,2.716168 -2.716171,2.716168 h -5.432342 c -1.508089,-0.0076 -2.716051,-1.215406 -2.723618,-2.723623 z M 19.520781,37.830911 c -4.501945,2e-6 -8.156085,3.654143 -8.156093,8.156091 8e-6,4.487053 3.661594,8.148637 8.14852,8.148519 4.494508,-0.0076 8.148649,-3.661585 8.156094,-8.156091 -3e-6,-4.487053 -3.661586,-8.148635 -8.148521,-8.148519 z"
   id="path2"
   inkscape:connector-curvature="0"
   style="stroke-width:0.16977896;fill:#999999" />
</svg>